<?xml version="1.0" encoding="utf-8"?>
<!-- Generator: Adobe Illustrator 24.1.2, SVG Export Plug-In . SVG Version: 6.00 Build 0)  -->
<svg version="1.1" id="katman_1" xmlns="http://www.w3.org/2000/svg" xmlns:xlink="http://www.w3.org/1999/xlink" x="0px" y="0px"
	 viewBox="0 0 1417.3 1417.3" style="enable-background:new 0 0 1417.3 1417.3;" xml:space="preserve">
<style type="text/css">
	.st0{fill:#FF0000;}
	.st1{fill:#FFFFFF;}
</style>
<g>
	<path class="st0" d="M569.6,721.5c0.5-0.4,0.7-0.7,0.9-0.9c3.2-2.8,6.5-5.7,9.7-8.5c0.5-0.5,1-0.7,1.7-0.7c1.9,0,3.8,0,5.6,0
		c14.9,0,29.8,0,44.8,0c71.2,0,142.5,0,213.7,0c0.6,0,1.1,0,1.6,0c0.1,0.3-0.1,0.4-0.2,0.6c-3.4,3-6.9,6-10.3,9
		c-0.4,0.3-0.8,0.5-1.3,0.5c-0.4,0-0.8,0-1.2,0c-65.8,0-131.6,0-197.4,0c-16.4,0-32.8,0-49.2,0c-5.7,0-11.4,0-17,0
		C570.7,721.6,570.3,721.5,569.6,721.5z"/>
	<path d="M734.1,707.1c0-0.4,0-0.7,0.1-1c2-12.4,3.9-24.9,5.9-37.3c0.3,0,0.6-0.1,0.9-0.1c5.2,0,10.3,0,15.5,0c1,0,1.9,0.1,2.9,0.3
		c2.8,0.6,4.8,2.2,6.2,4.7c0.8,1.6,1.3,3.3,1.5,5c0.4,3,0.2,6-0.1,9c-0.3,2.6-0.8,5.2-1.5,7.8c-0.4,1.3-0.9,2.6-1.4,3.9
		c-0.3,0.7-0.6,1.3-1,1.9c-1.9,3.2-4.8,5-8.4,5.6c-1.1,0.2-2.2,0.3-3.3,0.3c-5.3,0-10.6,0-16,0C734.8,707.1,734.5,707.1,734.1,707.1
		z M743.9,699.5c0.2,0,0.4,0.1,0.5,0.1c2.2,0,4.3,0,6.5,0c1.2,0,2.3-0.5,3.2-1.4c0.8-0.7,1.4-1.6,1.8-2.5c0.5-1.1,0.9-2.2,1.2-3.4
		c0.6-2.1,0.9-4.2,1.2-6.4c0.2-1.5,0.3-3.1,0.3-4.7c0-1-0.2-2-0.6-2.9c-0.4-1.1-1.2-1.9-2.4-2.1c-0.5-0.1-1.1-0.2-1.7-0.2
		c-1.8,0-3.6,0-5.4,0c-0.3,0-0.6,0-1,0.1c-1.2,7.5-2.4,14.9-3.6,22.4C743.9,698.9,743.9,699.2,743.9,699.5z"/>
	<path d="M726.2,692.3c0,0.5,0.2,1,0.4,1.4c1.5,4,2.9,8,4.4,12c0.1,0.4,0.4,0.8,0.3,1.3c-0.9,0.1-7.9,0.2-9.6,0
		c-0.1-0.2-0.2-0.5-0.3-0.8c-1.2-4-2.4-8-3.6-12.1c-0.1-0.5-0.3-0.9-0.4-1.4c-1.4-0.3-2.7-0.4-4.1-0.4c-0.4,1.6-0.5,3.3-0.8,4.9
		c-0.3,1.6-0.5,3.2-0.8,4.9c-0.3,1.6-0.5,3.2-0.8,4.9c-1,0.2-2,0.1-2.9,0.1c-0.9,0-1.8,0-2.8,0c-1,0-1.9,0-2.8,0
		c-0.1-0.1-0.1-0.1-0.1-0.2c0,0,0-0.1,0-0.1c2-12.6,4-25.2,6-37.8c0-0.1,0.1-0.1,0.1-0.2c0.3-0.3,0.7-0.2,1-0.2c2.3,0,4.6,0,7,0
		c2.8,0,5.5,0,8.3,0c1.3,0,2.6,0.1,3.8,0.6c2.3,0.8,3.9,2.3,4.8,4.5c0.6,1.5,0.8,3,0.8,4.6c0,2.7-0.4,5.3-1.3,7.9
		c-0.3,0.9-0.7,1.8-1.2,2.6c-1,1.7-2.5,2.9-4.5,3.3C726.7,692.2,726.4,692.3,726.2,692.3z M715.9,676.2c-0.1,0.4-0.2,0.6-0.2,0.9
		c-0.1,0.9-0.3,1.7-0.4,2.6c-0.3,1.6-0.5,3.2-0.8,4.9c-0.1,0.4-0.2,0.8,0,1.1c0.1,0.1,0.1,0.1,0.2,0.1c2.2,0,4.4,0.1,6.6,0
		c1.6,0,2.6-0.8,3.2-2.3c0.6-1.5,0.8-3.1,0.7-4.7c-0.1-1.9-0.8-2.6-2.7-2.6c-2,0-3.9,0-5.9,0C716.4,676.1,716.2,676.2,715.9,676.2z"
		/>
	<path d="M682.9,668.7c0.3,0,0.5-0.1,0.7-0.1c3,0,6,0,9,0c0.1,0,0.2,0.1,0.4,0.1c0.7,4.2,1.3,8.5,2,12.7c0.7,4.2,1.3,8.4,2,12.7
		c0.7,4.3,1.3,8.5,2,12.8c-1,0.2-2,0.1-2.9,0.1c-1,0-1.9,0-2.9,0c-1,0-1.9,0-2.9,0c-0.1-0.3-0.2-0.6-0.3-0.9c-0.3-1.9-0.7-3.9-1-5.8
		c-0.1-0.3-0.2-0.6-0.2-0.9c-1-0.1-10.1-0.1-11.3,0c-1.2,2.4-2.3,5-3.6,7.5c-0.6,0.2-1.3,0.1-1.9,0.1c-0.6,0-1.3,0-1.9,0
		c-0.6,0-1.2,0-1.8,0c-0.6,0-1.3,0-1.9,0c-0.6,0-1.3,0-2-0.1c0.1-0.3,0.2-0.5,0.2-0.6C670.7,693.9,676.8,681.3,682.9,668.7z
		 M686.2,680.1c-0.1,0.2-0.2,0.3-0.3,0.4c-1.6,3.6-3.3,7.3-4.9,10.9c-0.1,0.2-0.1,0.3-0.1,0.5c1.9,0.1,6.1,0.1,7-0.1
		c0-0.1,0.1-0.3,0-0.5c-0.5-3.7-1-7.3-1.6-11C686.4,680.3,686.3,680.2,686.2,680.1z"/>
	<path d="M722.4,738c-0.4,0-0.8,0-1.3-0.1c-1-0.2-1.7-0.7-1.9-1.7c-0.1-0.4-0.2-0.8-0.2-1.2c0-1.4,0.2-2.9,0.7-4.2
		c0.6-1.7,1.6-2.4,3.4-2.4c0.5,0,1,0,1.6,0c1.4,0.1,2.2,0.9,2.4,2.2c0,0.1,0,0.2,0,0.2c0.1,1.7-0.1,3.4-0.8,5
		c-0.5,1.3-1.5,2-2.9,2.1C723.2,738,722.8,738,722.4,738z M725,732.3c0-1.8-0.4-2.2-1.7-2.1c-0.7,0-1.2,0.3-1.5,1
		c-0.4,1.2-0.6,2.4-0.6,3.6c0,0.2,0,0.4,0.1,0.6c0.1,0.2,0.3,0.4,0.5,0.5c1.4,0.3,2.3,0.1,2.7-1.2
		C724.8,733.8,724.9,732.8,725,732.3z"/>
	<path d="M701.5,737.8c-0.1-0.5,0-0.9,0.1-1.3c0.3-1.9,0.6-3.8,0.9-5.7c0-0.3,0.1-0.5,0.2-0.8c0.3-1,1-1.6,2-1.7
		c1.5-0.1,2.9,0,4.4,0.2c0,0.6-0.1,1.1-0.2,1.6c-0.3,0-0.6,0.1-0.8,0.1c-0.7,0-1.4,0-2,0c-1.2,0-1.3,0.1-1.5,1.4c0,0.1,0,0.2,0,0.4
		c1.1,0.3,2.2,0,3.4,0.4c-0.1,0.5-0.1,1-0.2,1.6c-1.2,0.2-2.3,0-3.4,0.3c-0.5,1.1-0.3,2.4-0.8,3.6C702.8,738,702.1,738,701.5,737.8z
		"/>
	<path d="M718.2,737.9c-1.5,0.1-2.9,0.1-4.3,0c-1-0.1-1.4-0.6-1.4-1.6c0-0.5,0.1-1,0.2-1.5c0.3-1.7,0.5-3.5,0.8-5.2
		c0.1-0.4,0.1-0.7,0.2-1.1c0.7-0.2,1.3-0.2,2,0c0,0.8-0.2,1.5-0.3,2.3c-0.2,1.3-0.4,2.6-0.6,3.9c0,0.2-0.1,0.4-0.1,0.6
		c0,0.6,0.1,0.8,0.6,0.8c0.6,0,1.2,0,1.8,0c0.4,0,0.8-0.1,1.2,0.1c0,0.1,0,0.2,0,0.4C718.4,736.9,718.3,737.3,718.2,737.9z"/>
	<path d="M710.9,737.9c-0.8,0.1-1.4,0.1-2.1,0c0.1-1.6,0.4-3.2,0.7-4.7c0.2-1.6,0.4-3.1,0.8-4.7c0.7-0.1,1.3-0.1,2,0
		c0,0.3,0,0.6,0,0.8C711.8,732,711.4,734.9,710.9,737.9z"/>
	<path d="M711.3,727.3c-0.5,0.2-1,0.2-1.4,0.1c-0.2-0.6,0.1-1,0.1-1.4c0.5-0.4,0.9-0.2,1.5-0.2c0,0.2,0.1,0.4,0.1,0.5
		C711.4,726.7,711.3,727,711.3,727.3z"/>
	<path class="st1" d="M743.9,699.5c0-0.3,0-0.7,0.1-1c1.2-7.4,2.3-14.9,3.6-22.4c0.4,0,0.7-0.1,1-0.1c1.8,0,3.6,0,5.4,0
		c0.6,0,1.1,0.1,1.7,0.2c1.2,0.3,2,1,2.4,2.1c0.4,0.9,0.5,1.9,0.6,2.9c0.1,1.6-0.1,3.1-0.3,4.7c-0.3,2.1-0.6,4.3-1.2,6.4
		c-0.3,1.1-0.8,2.3-1.2,3.4c-0.4,1-1,1.8-1.8,2.5c-0.9,0.8-2,1.3-3.2,1.4c-2.2,0-4.3,0-6.5,0C744.3,699.7,744.1,699.6,743.9,699.5z"
		/>
	<path class="st1" d="M715.9,676.2c0.3,0,0.5,0,0.7,0c2,0,3.9,0,5.9,0c1.9,0,2.6,0.7,2.7,2.6c0.1,1.6-0.2,3.2-0.7,4.7
		c-0.6,1.5-1.6,2.3-3.2,2.3c-2.2,0-4.4,0-6.6,0c0,0-0.1,0-0.2-0.1c-0.2-0.3,0-0.7,0-1.1c0.2-1.6,0.5-3.2,0.8-4.9
		c0.1-0.9,0.3-1.7,0.4-2.6C715.7,676.8,715.8,676.5,715.9,676.2z"/>
	<path class="st1" d="M686.2,680.1c0.1,0.1,0.2,0.2,0.2,0.3c0.5,3.7,1.1,7.3,1.6,11c0,0.1,0,0.3,0,0.5c-0.9,0.2-5.1,0.2-7,0.1
		c0-0.2,0-0.4,0.1-0.5c1.6-3.6,3.3-7.3,4.9-10.9C686,680.3,686.1,680.2,686.2,680.1z"/>
	<path class="st1" d="M725,732.3c-0.1,0.5-0.2,1.4-0.5,2.3c-0.4,1.3-1.3,1.5-2.7,1.2c-0.2,0-0.4-0.3-0.5-0.5
		c-0.1-0.2-0.1-0.4-0.1-0.6c0-1.2,0.2-2.5,0.6-3.6c0.2-0.7,0.7-1,1.5-1C724.6,730.2,725,730.5,725,732.3z"/>
</g>
</svg>

